<?xml version="1.0" encoding="utf-8"?>
<!-- Generator: Adobe Illustrator 19.2.0, SVG Export Plug-In . SVG Version: 6.00 Build 0)  -->
<svg version="1.1" xmlns="http://www.w3.org/2000/svg" xmlns:xlink="http://www.w3.org/1999/xlink" x="0px" y="0px"
	 viewBox="0 0 595.3 841.9" style="enable-background:new 0 0 595.3 841.9;" xml:space="preserve">
<style type="text/css">
	.st0{fill:none;stroke:#8E8B20;stroke-miterlimit:10;}
	.st1{fill:none;stroke:#8D2051;stroke-miterlimit:10;}
	.st2{fill:none;stroke:#1F4C8D;stroke-miterlimit:10;}
	.st3{fill:none;stroke:#205F8D;stroke-miterlimit:10;}
	.st4{fill:none;stroke:#20828C;stroke-miterlimit:10;}
	.st5{fill:none;stroke:#223A87;stroke-miterlimit:10;}
	.st6{fill:none;stroke:#20518D;stroke-miterlimit:10;}
	.st7{fill:none;stroke:#203F8B;stroke-miterlimit:10;}
	.st8{fill:none;stroke:#283381;stroke-miterlimit:10;}
	.st9{fill:none;stroke:#2B307D;stroke-miterlimit:10;}
	.st10{fill:none;stroke:#31285F;stroke-miterlimit:10;}
</style>
<g id="face1">
	<path class="st0" d="M275.5,135.5c-1.4-0.6-1,0-2.1,0.1c-0.1,0-2,0.3-4,1c-6.2,2.4-11.1,7.2-11.1,7.2s-4.1,4.1-4.8,7.5
		c-0.3,1.6,0.1,2.9,0.1,2.9c0.2,0.7,0.5,1,0.7,1.4c1,2-0.6,5.1-2,7c-0.8,1.1-2.5,3-4,4.3c-0.2,0.2-0.7,0.7-0.8,1.4
		c-0.2,1,0.5,2.2,1.4,2.6c1.4,0.7,2.8-0.5,3.1,0c0.6,0.8-3.4,4.2-2.6,5.5c0.1,0.1,0.5,0.3,1.2,0.8c1.2,0.7,1.6,0.8,1.6,1
		c0,0.5-2.2,0.3-2.4,1.1c-0.1,0.5,0.6,1.1,0.9,1.4c0.8,0.7,1.4,0.6,1.6,1.1c0.1,0.4,0,0.8-0.4,1.6c-0.3,0.8-0.5,1-0.8,1.5
		c0,0-0.5,1.2-0.2,2.7c0.4,2,2.4,3,3,3.3c2,1.1,4.1,0.9,6,0.7c1.8-0.2,17.1-1.3,17.3-3.3C278.2,187.2,278.9,140.5,275.5,135.5z"/>
</g>
<g id="backOfHead">
	<path class="st1" d="M274.8,135.8c0.3-0.7,1.4-0.9,4.6-0.9c2.5,0,3.7,0,4.9,0.1c3.2,0.4,7.9,0.9,12.8,4c1.7,1.1,5.4,3.4,8,8
		c2.2,3.9,2.9,10.6,2.9,10.6s1.1,11.7-2.9,16.4c-1.8,2-4,4-4,4c-2.3,2-3.1,2.2-4.2,3.9c-1,1.5-1,2.2-2.1,3.1c-3,2.4-16,4.6-17.3,3.2
		c-0.9-0.8-2.1-49.5-2.4-50.8C274.7,136.1,274.7,135.9,274.8,135.8z"/>
</g>
<g id="neck">
	<path class="st2" d="M264.7,190.3c0,0,1.1,2.4,1,5.3c-0.8,4.3-3.5,6.5-4.3,8.3c14.2,7.1,28.9,4.8,38,0.7c-0.5-2-4.3-7.7-4.3-7.7
		s-0.6-8.8-0.7-11.7c-3.7,0.7-7.7,1.7-7.7,1.7l-8.8,1.6c0,0-3.8,0.7-4.2,0.7c-4.4,0.4-7.3,0.5-7.3,0.5
		C265.5,189.9,264.7,190.3,264.7,190.3z"/>
</g>
<g id="torso">
	<path class="st0" d="M261,204.3c0,0-2.2,2-4.3,3.7c-4.2,3.1-7.7,4-7.7,4s6.1,17.5-10,45c-0.3,1.2,0.3,6,0.3,6l4,14.3l2,4.3
		c2.3,0.7,5.3,1,5.3,1c34.7,1.1,58.6-0.4,64-1c0.3-0.3,0.2-0.2,2.7-6.3c1.9-5.8,2-7.2,2.7-9c-0.1-0.9-2-5-2-5s-1.1-2.1-2.7-5.3
		c0,0-9.8-15.1-6-45.7c-0.3-0.6-0.6-0.6-4.3-2.3c-4.4-2.1-4.8-2.6-6.7-3C287,207.1,267.2,207,261,204.3z"/>
</g>
<g id="rightShoulder">
	<path class="st3" d="M309,210.1c5.3,1.4,9.7,3,12.9,4.4c10.9,4.5,13.7,7.9,14.8,9.2c1.8,2.4,2.7,4.6,3.2,5.9
		c2.3,5.8,1.8,10.2,1.8,15.6c0.8,14.8,1.4,19.1,1.1,21.1c-8.4,1.9-15.6,2.2-22.9,0C314.9,256.8,304.6,241.6,309,210.1z"/>
</g>
<g id="rightArm">
	<path class="st0" d="M342.7,266.2c1,3.8,1.8,24,1.8,24l4.5,9c0,0,7.7,8,10.8,37.5c1,10.2,2.3,15.7,4,19.5c-3.7,2.6-6.7,3.8-11.5,3
		c-0.2-2.8-1.8-5-3.7-7.7c-5-11.7-12.5-20.2-19-43.8c-1.2-5.6-0.3-4.3-1.7-10.8c-4.7-14.5-7.2-25.7-7.7-30.7
		C331.5,267,332.8,266.5,342.7,266.2z"/>
</g>
<g id="rightHand">
	<path class="st4" d="M363.3,356c3.1,3.6,3.8,4.4,6.3,6.2c3.5,3.1,4.2,10.3,4.2,10.3s8.3,9.2,7.2,12.8c-4.8-1.5-9.1-9.8-10-9.2
		c0.6,0.7,10.8,13.7,6.8,13.5c-4.2,0-6.3-10.8-9-10.8c-4.2-1.1,6.2,13,3.2,15c-4.8,0.4-5.1-10.4-7.7-13.7c-2.1-0.5,3.7,14.7,0.2,14
		c-3.6,2-4.8-15.9-7.8-18.7c-5.2,0.3-2.9,8.7-6.3,9c-2.1,0.7-2.5-1.3-2.5-1.3c1.8-6.8,0.6-9.2,0.8-11.3c-0.3-0.6,0.9-3.6,3.7-12.8
		C357.4,358.2,359.2,357.8,363.3,356z"/>
</g>
<g id="leftShoulder">
	<path class="st5" d="M249,211.8c4.1,14.9,0.4,28.8-10.2,45.7c-8.6,2.5-13.2,2.5-20.5-0.2c-0.3-3.8,0.5-9,0-15.8
		c-0.2-7.3,6-25.5,19-26.7C240.8,213.2,244.5,213.8,249,211.8z"/>
</g>
<g id="leftArm">
	<path class="st0" d="M218.3,257.3c-1,6.5,0.2,12.8-2.3,28.7c-0.6,2.3-0.8,2.4-3,8c-10.5,18.8-13.8,37.7-15.5,53.8
		c-0.2,1.5-0.7,4.7-1.3,7c2.1,2.7,4.2,3.3,9.3,3c1.2-2.8,17.3-29.5,20.3-38c0.8-4.8,0-7.2,1.7-9.8c-0.3-3.7,13-32.8,12.5-43
		c0-5.3-0.7-7-1.3-9.8C232,257.3,226,258.3,218.3,257.3z"/>
</g>
<g id="leftHand">
	<path class="st6" d="M196.2,354.7c-2.5,4.3-6.1,6.9-8.7,15c-1.1,3.4-0.7,3.3-1.8,6.5c-6.3,9.2-6.7,11.2-5.5,12s6.8-10,7.8-9.5
		c1.1,0.6-6.3,12-4.3,14.2c2.7,0.5,3.3,0.3,8-11.3c0,0-2.7,11.8-1.2,15.8c1.3,1,6.2-15.2,6.2-15.2s-0.7,14.7,1.2,14.8
		s2-5.5,3.7-14.3c1.7-4.1,3.4-6.7,4.2-6.5c0.9,0.3-0.7,4.4,1.5,7c2.3,1.5,4.7,2.5,5.7,1.5c-2.7-7-2.8-10.5-2.8-10.5s0.3-4.2-1-8
		c-2-3.2-3.8-4.7-3.5-8.7C202.7,356.7,199.8,356.2,196.2,354.7z"/>
</g>
<g id="Stomach">
	<path class="st7" d="M245.5,281.3c5,14.2-4.7,41.5-7,65.3c35,10.7,52.5,9.3,82.2,0.3c-0.3-9.8,0.3-22-7.3-41.8
		c-0.8-10.2-0.5-15.5,1.8-23.5C315.2,281.7,289,279.5,245.5,281.3z"/>
</g>
<g id="Thighs">
	<path class="st0" d="M238.7,346.7c-5,33.5-1.3,72.2,6.3,88.2c11.8,0.9,17.5,1.5,29.7-0.5c0.3-20.2,0.5-56.7,5.3-58.2
		c3.3-2.3,6.3,45.8,3.7,57.8c12.8,2,16.7,2.5,30.5,1.2c12.8-28.7,8.3-53.7,6.3-88C290.2,354.2,274.4,355.8,238.7,346.7z"/>
</g>
<g id="rightKnee">
	<path class="st8" d="M284,434c-1.3,6.2-2.3,15,2.7,25.2c1.6,7.6,2.8,9.9,1.2,17.2c8.9,2,13.8,2.2,24.8,0.5
		c-0.7-4.7-1.8-20.5-1.8-20.5s1.8-14.8,3.5-21.5C302.3,435.5,295.3,435,284,434z"/>
</g>
<g id="leftKnee">
	<path class="st2" d="M245,434.5c2.3,5.5,4.5,10.1,4,23.3c-0.4,10.3-1.5,13.2-2.7,17.8c10.8,2.5,15.5,2.3,25.7,0.3
		c-0.5-3.3,0-6.8,2.5-13.7c-0.2-15.3-0.2-23.3,0.3-28C262.3,434.7,256.7,435,245,434.5z"/>
</g>
<g id="rightCalf">
	<path class="st0" d="M287.8,476.2c-7,22-1.5,37.7,3.5,68.8c-1.5,6.8-3.3,12-3.7,17.7c6.5,1.5,9.3,1.1,14.8-1.2
		c0.5-8.5,2.2-17,11.2-53.3c3.7-12.5,1.8-24.8-1.2-31.5C302.2,477.2,296,476.7,287.8,476.2z"/>
</g>
<g id="leftCalf">
	<path class="st0" d="M246.3,475.7c-4.3,12.3-2.3,33,5.8,57.2c2.5,9.5,5.7,18.8,5.8,26c5.4,4.9,8.1,4.2,14.3,3.8
		c-0.2-5.5-2.8-11.2-3.3-16.2c-0.5-12.5,3-17,5.8-36.5c0.3-14.7-1.5-23.5-3.2-34.3C261.8,476.3,255.5,476,246.3,475.7z"/>
</g>
<g id="rightFoot">
	<path class="st9" d="M287.8,562.7c0.2,2.7,0.7,5.3,0.3,8.7c-1.3,1.8-1.3,4.5-1.3,4.5s0.3,1.3,4.5,3.3c3.9,2.6,3.7,4,6.2,6.8
		c3,2.1,4.7,6.3,9,2.3c3.3,0.1,5,0.2,6.3-0.8c13.3-4.8,0.7-13.1,0.5-13.7c-9.2-6.3-9.5-5.8-11.2-12.5
		C296.5,562,293.8,562.3,287.8,562.7z"/>
</g>
<g id="leftFoot">
	<path class="st10" d="M257.7,558.8c0.5,9.2-4,8.2-12.3,17c-10,6-2.9,7.5-1.7,9.3c5.3,1.7,2.4,1.8,5.5,2.8c4.3-0.7,5.2,1.8,7.2,1.5
		c2.7,0.5,7.7-5.2,7.7-5.2s3.5-5.2,5.8-5.5c4.3-1.7,2.4-5.7,2.7-7.8c-0.8-3-0.3-8.3-0.3-8.3S263.9,561.9,257.7,558.8z"/>
</g>
</svg>
